<svg width="46" height="46" fill="currentColor" viewBox="0 0 24 24" xmlns="http://www.w3.org/2000/svg">
  <path d="M11.695 2.23c-.398.012-.808.056-1.219.117h-.023c-3.993.653-7.228 3.8-8.04 7.781-.242 1.134-.228 2.192-.07 3.235.006.003 0 .017 0 .023.247 1.76 2.532 2.531 3.82 1.242.924-.923 2.289-.923 3.212 0s.923 2.288 0 3.211c-1.29 1.29-.519 3.574 1.242 3.82.006 0 .02-.005.023 0a8.809 8.809 0 0 0 3.211-.07h.024c3.993-.744 7.13-4.054 7.781-8.039v-.023c.85-5.73-3.34-10.735-8.789-11.25a9.158 9.158 0 0 0-1.172-.047Zm.024 1.5c.34-.012.676-.006 1.007.023a8.32 8.32 0 0 1 7.454 9.563c-.548 3.357-3.24 6.181-6.586 6.797h-.024a7.415 7.415 0 0 1-2.742.07c-.615-.076-.9-.765-.398-1.266a3.777 3.777 0 0 0 0-5.343 3.777 3.777 0 0 0-5.344 0c-.501.5-1.19.216-1.266-.399a7.413 7.413 0 0 1 .07-2.742c.689-3.366 3.44-6.062 6.797-6.61a8.99 8.99 0 0 1 1.032-.093Zm-1.22 1.523a1.5 1.5 0 1 0 0 3 1.5 1.5 0 1 0 0-3Zm5.25 1.5a1.5 1.5 0 1 0 0 3 1.5 1.5 0 1 0 0-3Zm-9 1.5a1.5 1.5 0 1 0 0 3 1.5 1.5 0 1 0 0-3Zm10.5 3.75a1.5 1.5 0 1 0 0 3 1.5 1.5 0 1 0 0-3Zm-3 3.75a1.5 1.5 0 1 0 0 3 1.5 1.5 0 1 0 0-3Z"></path>
</svg>